<svg width="63" height="64" viewBox="0 0 63 64" fill="none" xmlns="http://www.w3.org/2000/svg">
<path d="M57.75 23.6436V18.3936H55.125V13.1436H52.5V10.5186H49.875V7.89355H44.625V5.26855H39.375V2.64355H23.625V5.26855H18.375V7.89355H13.125V10.5186H10.5V13.1436H7.875V18.3936H5.25V23.6436H2.625V39.3936H5.25V44.6436H7.875V49.8936H10.5V52.5186H13.125V55.1436H18.375V57.7686H23.625V60.3936H39.375V57.7686H44.625V55.1436H49.875V52.5186H52.5V49.8936H55.125V44.6436H57.75V39.3936H60.375V23.6436H57.75ZM34.125 42.0186V39.3936H31.5V36.7686H28.875V13.1436H34.125V34.1436H36.75V36.7686H39.375V39.3936H42V42.0186H39.375V44.6436H36.75V42.0186H34.125Z" fill="#CC5E45"/>
</svg>
