<svg width="63" height="64" viewBox="0 0 63 64" fill="none" xmlns="http://www.w3.org/2000/svg">
<path d="M55.125 26.2686V23.6436H52.5V18.3936H55.125V13.1436H52.5V10.5186H49.875V7.89355H44.625V10.5186H39.375V7.89355H36.75V2.64355H26.25V7.89355H23.625V10.5186H18.375V7.89355H13.125V10.5186H10.5V13.1436H7.875V18.3936H10.5V23.6436H7.875V26.2686H2.625V36.7686H7.875V39.3936H10.5V44.6436H7.875V49.8936H10.5V52.5186H13.125V55.1436H18.375V52.5186H23.625V55.1436H26.25V60.3936H36.75V55.1436H39.375V52.5186H44.625V55.1436H49.875V52.5186H52.5V49.8936H55.125V44.6436H52.5V39.3936H55.125V36.7686H60.375V26.2686H55.125ZM55.125 34.1436H52.5V36.7686H49.875V39.3936H47.25V44.6436H49.875V49.8936H44.625V47.2686H39.375V49.8936H36.75V52.5186H34.125V55.1436H28.875V52.5186H26.25V49.8936H23.625V47.2686H18.375V49.8936H13.125V44.6436H15.75V39.3936H13.125V36.7686H10.5V34.1436H7.875V28.8936H10.5V26.2686H13.125V23.6436H15.75V18.3936H13.125V13.1436H18.375V15.7686H23.625V13.1436H26.25V10.5186H28.875V7.89355H34.125V10.5186H36.75V13.1436H39.375V15.7686H44.625V13.1436H49.875V18.3936H47.25V23.6436H49.875V26.2686H52.5V28.8936H55.125V34.1436Z" fill="#CC5E45"/>
<path d="M42 26.2686V23.6436H39.375V21.0186H36.75V18.3936H26.25V21.0186H23.625V23.6436H21V26.2686H18.375V36.7686H21V39.3936H23.625V42.0186H26.25V44.6436H36.75V42.0186H39.375V39.3936H42V36.7686H44.625V26.2686H42ZM39.375 36.7686H36.75V39.3936H26.25V36.7686H23.625V26.2686H26.25V23.6436H36.75V26.2686H39.375V36.7686Z" fill="#CC5E45"/>
</svg>
