<svg width="63" height="64" viewBox="0 0 63 64" fill="none" xmlns="http://www.w3.org/2000/svg">
<path d="M42 52.5186H39.375V55.1436H5.25V52.5186H2.625V44.6436H5.25V42.0186H7.875V39.3936H10.5V36.7686H34.125V39.3936H36.75V42.0186H39.375V44.6436H42V52.5186Z" fill="#CC5E45"/>
<path d="M34.125 31.5186V28.8936H36.75V13.1436H47.25V15.7686H49.875V28.8936H47.25V31.5186H34.125Z" fill="#CC5E45"/>
<path d="M60.375 44.6436V52.5186H57.75V55.1436H42V52.5186H44.625V42.0186H42V39.3936H39.375V36.7686H52.5V39.3936H55.125V42.0186H57.75V44.6436H60.375Z" fill="#CC5E45"/>
<path d="M31.5 7.89355V10.5186H28.875V13.1436H26.25V10.5186H23.625V7.89355H21V10.5186H18.375V13.1436H15.75V10.5186H13.125V7.89355H10.5V26.2686H13.125V28.8936H15.75V31.5186H28.875V28.8936H31.5V26.2686H34.125V7.89355H31.5ZM28.875 23.6436H26.25V26.2686H18.375V23.6436H15.75V18.3936H28.875V23.6436Z" fill="#CC5E45"/>
</svg>
