<svg width="31" height="23" viewBox="0 0 31 23" fill="none" xmlns="http://www.w3.org/2000/svg">
<path d="M27.875 1.875V0.5H3.125V1.875H0.375V21.125H1.75V22.5H29.25V21.125H30.625V1.875H27.875ZM12.75 11.5V10.125H11.375V8.75H10V7.375H8.625V6H7.25V4.625H5.875V3.25H25.125V4.625H23.75V6H22.375V7.375H21V8.75H19.625V10.125H18.25V11.5H16.875V12.875H14.125V11.5H12.75ZM4.5 4.625V6H5.875V7.375H7.25V8.75H8.625V10.125H10V11.5H11.375V12.875H12.75V14.25H14.125V15.625H16.875V14.25H18.25V12.875H19.625V11.5H21V10.125H22.375V8.75H23.75V7.375H25.125V6H26.5V4.625H27.875V19.75H3.125V4.625H4.5Z" fill="#CBBDA8"/>
</svg>
