<svg width="21" height="15" viewBox="0 0 21 15" fill="none" xmlns="http://www.w3.org/2000/svg">
<path d="M18.375 1.375V0.5H2.625V1.375H0.875V13.625H1.75V14.5H19.25V13.625H20.125V1.375H18.375ZM8.75 7.5V6.625H7.875V5.75H7V4.875H6.125V4H5.25V3.125H4.375V2.25H16.625V3.125H15.75V4H14.875V4.875H14V5.75H13.125V6.625H12.25V7.5H11.375V8.375H9.625V7.5H8.75ZM3.5 3.125V4H4.375V4.875H5.25V5.75H6.125V6.625H7V7.5H7.875V8.375H8.75V9.25H9.625V10.125H11.375V9.25H12.25V8.375H13.125V7.5H14V6.625H14.875V5.75H15.75V4.875H16.625V4H17.5V3.125H18.375V12.75H2.625V3.125H3.5Z" fill="#CBBDA8"/>
</svg>
