<svg width="343" height="290" viewBox="0 0 343 290" fill="none" xmlns="http://www.w3.org/2000/svg">
<rect width="313" height="5" transform="matrix(1 0 0 -1 15 10)" fill="#A69C8D"/>
<rect x="5" y="275" width="260" height="5" transform="rotate(-90 5 275)" fill="#A69C8D"/>
<rect width="260" height="5" transform="matrix(0 -1 -1 0 338 275)" fill="#A69C8D"/>
<rect y="285" width="280" height="5" transform="rotate(-90 0 285)" fill="#CC5E45"/>
<rect width="280" height="5" transform="matrix(0 -1 -1 0 343 285)" fill="#CC5E45"/>
<rect width="333" height="5" transform="matrix(1 0 0 -1 5 5)" fill="#CC5E45"/>
<rect x="10" y="5" width="5" height="5" fill="#CC5E45"/>
<rect width="5" height="5" transform="matrix(-1 0 0 1 333 5)" fill="#CC5E45"/>
<rect x="5" y="10" width="5" height="5" fill="#CC5E45"/>
<rect width="5" height="5" transform="matrix(-1 0 0 1 338 10)" fill="#CC5E45"/>
<rect x="15" y="280" width="313" height="5" fill="#A69C8D"/>
<rect x="5" y="285" width="333" height="5" fill="#CC5E45"/>
<rect x="5" y="275" width="5" height="5" fill="#CC5E45"/>
<rect width="5" height="5" transform="matrix(-1 0 0 1 338 275)" fill="#CC5E45"/>
<rect x="10" y="280" width="5" height="5" fill="#CC5E45"/>
<rect width="5" height="5" transform="matrix(-1 0 0 1 333 280)" fill="#CC5E45"/>
<rect x="10" y="275" width="5" height="5" fill="#A69C8D"/>
<rect width="5" height="5" transform="matrix(-1 0 0 1 333 275)" fill="#A69C8D"/>
<rect x="10" y="10" width="5" height="5" fill="#A69C8D"/>
<rect width="5" height="5" transform="matrix(-1 0 0 1 333 10)" fill="#A69C8D"/>
</svg>
