<svg width="19" height="20" viewBox="0 0 19 20" fill="none" xmlns="http://www.w3.org/2000/svg">
<g clip-path="url(#clip0_56_4181)">
<path d="M17.4165 16.373V15.5634H16.6248V14.7538H15.8332V13.9442H15.0415V13.1346H13.4582V12.325H14.2498V10.7058H15.0415V5.84827H14.2498V4.22909H13.4582V3.4195H12.6665V2.60991H11.8748V1.80031H10.2915V0.990723H5.5415V1.80031H3.95817V2.60991H3.1665V3.4195H2.37484V4.22909H1.58317V5.84827H0.791504V10.7058H1.58317V12.325H2.37484V13.1346H3.1665V13.9442H3.95817V14.7538H5.5415V15.5634H10.2915V14.7538H11.8748V13.9442H12.6665V15.5634H13.4582V16.373H14.2498V17.1825H15.0415V17.9921H15.8332V18.8017H17.4165V17.9921H18.2082V16.373H17.4165ZM9.49984 12.325V13.1346H6.33317V12.325H4.74984V11.5154H3.95817V9.89623H3.1665V6.65786H3.95817V5.03868H4.74984V4.22909H6.33317V3.4195H9.49984V4.22909H11.0832V5.03868H11.8748V6.65786H12.6665V9.89623H11.8748V11.5154H11.0832V12.325H9.49984Z" fill="black"/>
</g>
<defs>
<clipPath id="clip0_56_4181">
<rect width="19" height="19.4302" fill="white" transform="translate(0 0.181152)"/>
</clipPath>
</defs>
</svg>
